<?xml version="1.0" standalone="no"?>
<!DOCTYPE svg PUBLIC "-//W3C//DTD SVG 20010904//EN"
 "http://www.w3.org/TR/2001/REC-SVG-20010904/DTD/svg10.dtd">
<svg version="1.0" xmlns="http://www.w3.org/2000/svg"
 width="1088.000000pt" height="1088.000000pt" viewBox="0 0 1088.000000 1088.000000"
 preserveAspectRatio="xMidYMid meet">
<metadata>
Created by potrace 1.11, written by Peter Selinger 2001-2013
</metadata>
<g transform="translate(0.000000,1088.000000) scale(0.100000,-0.100000)"
fill="#000000" stroke="none">
<path d="M3679 9587 c-51 -50 -125 -107 -138 -107 -6 0 -11 -4 -11 -8 0 -11
-152 -90 -220 -114 -393 -141 -846 -53 -1145 224 -16 15 -33 28 -36 28 -4 0
-484 -477 -1068 -1061 l-1061 -1061 46 -52 c46 -50 129 -166 127 -176 0 -3 7
-16 16 -30 23 -33 53 -100 80 -177 25 -70 27 -78 47 -188 16 -87 7 -354 -14
-420 -3 -11 -6 -22 -7 -25 -10 -49 -20 -81 -32 -110 -41 -97 -69 -156 -80
-168 -6 -6 -15 -22 -19 -34 -3 -12 -10 -26 -15 -32 -5 -6 -30 -38 -56 -71 -26
-33 -58 -71 -70 -85 l-23 -25 2318 -2317 c1274 -1275 2319 -2318 2322 -2318 3
0 24 18 48 40 23 22 44 40 47 40 3 0 16 9 28 21 28 26 149 99 165 99 7 0 12 5
12 10 0 6 4 10 9 10 5 0 31 10 58 22 26 11 53 22 58 23 6 1 13 3 18 5 4 1 10
3 15 4 4 1 25 7 46 14 22 6 43 9 48 6 4 -3 8 -1 8 4 0 5 6 9 13 9 6 0 35 4 62
8 61 10 296 13 310 4 6 -3 17 -6 25 -6 19 -1 54 -8 110 -23 25 -7 52 -14 60
-15 8 -2 17 -4 20 -5 3 -1 8 -2 13 -1 4 0 7 -3 7 -8 0 -5 13 -12 30 -16 37 -8
171 -77 215 -111 19 -14 37 -26 42 -26 9 -1 84 -61 114 -93 19 -19 31 -7 1080
1041 l1060 1060 -28 30 c-26 28 -100 124 -117 152 -4 6 -2 12 3 12 6 0 11 -4
11 -10 0 -12 57 -88 104 -138 l35 -37 1255 1255 1255 1255 -30 35 c-17 19 -40
46 -52 60 -53 60 -163 249 -173 295 -1 6 -8 24 -15 40 -6 17 -14 39 -16 50 -6
28 -9 38 -16 55 -3 8 -8 31 -11 50 -3 19 -8 49 -11 65 -14 64 -6 349 10 375 2
4 7 21 10 39 13 73 100 292 124 311 3 3 15 21 25 40 11 19 25 40 30 46 6 7 20
24 31 40 11 15 35 43 53 62 27 29 30 37 20 50 -7 8 -485 487 -1062 1064 -938
938 -1050 1047 -1066 1036 -10 -7 -49 -38 -86 -69 -38 -30 -85 -65 -104 -76
-86 -53 -236 -117 -300 -129 -14 -3 -34 -8 -45 -11 -26 -8 -37 -10 -115 -19
-109 -13 -238 -8 -345 11 -37 7 -140 35 -160 44 -11 5 -40 17 -65 26 -41 15
-160 77 -185 97 -97 75 -133 104 -148 120 -10 10 -24 15 -30 11 -7 -3 -114
-108 -239 -232 -125 -124 -232 -227 -238 -229 -5 -2 -10 -7 -10 -11 0 -5 -83
-91 -185 -192 -746 -740 -1025 -1020 -1025 -1029 0 -10 1130 -1142 1179 -1181
13 -10 22 -19 19 -19 -2 0 42 -46 98 -102 57 -57 445 -445 863 -862 660 -658
775 -776 758 -776 -2 0 -1047 1044 -2323 2320 -1275 1276 -2322 2320 -2325
2320 -3 0 -21 -15 -40 -33z m4661 -4641 c0 -2 -8 -10 -17 -17 -16 -13 -17 -12
-4 4 13 16 21 21 21 13z m-269 -509 c-10 -9 -11 -8 -5 6 3 10 9 15 12 12 3 -3
0 -11 -7 -18z m-10 -50 c-10 -9 -11 -8 -5 6 3 10 9 15 12 12 3 -3 0 -11 -7
-18z m-10 -44 c-12 -20 -14 -14 -5 12 4 9 9 14 11 11 3 -2 0 -13 -6 -23z m-1
-63 c0 -5 -2 -10 -4 -10 -3 0 -8 5 -11 10 -3 6 -1 10 4 10 6 0 11 -4 11 -10z
m-13 -82 c-3 -8 -6 -5 -6 6 -1 11 2 17 5 13 3 -3 4 -12 1 -19z m0 -50 c-3 -7
-5 -2 -5 12 0 14 2 19 5 13 2 -7 2 -19 0 -25z m13 -74 c0 -8 -5 -12 -10 -9 -6
4 -8 11 -5 16 9 14 15 11 15 -7z m4 -57 c2 -15 1 -27 -3 -27 -4 0 -8 14 -9 31
-1 37 5 35 12 -4z m9 -52 c4 -8 3 -16 -1 -19 -4 -3 -9 4 -9 15 -2 23 3 25 10
4z m6 -47 c-1 -1 3 -13 10 -25 7 -15 8 -23 1 -23 -5 0 -10 6 -11 13 0 6 -2 20
-4 30 -2 11 -1 17 2 14 2 -3 4 -7 2 -9z m18 -80 c-3 -8 -6 -5 -6 6 -1 11 2 17
5 13 3 -3 4 -12 1 -19z m20 -31 c0 -7 11 -39 26 -70 14 -31 24 -57 21 -57 -5
0 -64 124 -64 135 0 3 4 5 8 5 5 0 9 -6 9 -13z m81 -179 c12 -23 20 -43 18
-45 -2 -2 -15 16 -29 41 -14 26 -23 46 -19 46 4 0 17 -19 30 -42z"/>
</g>
</svg>
